<?xml version="1.0" encoding="UTF-8"?>
<svg width="117px" height="22px" viewBox="0 0 117 22" version="1.1" xmlns="http://www.w3.org/2000/svg" xmlns:xlink="http://www.w3.org/1999/xlink">
    <!-- Generator: Sketch 43.1 (39012) - http://www.bohemiancoding.com/sketch -->
    <title>marchand-logo</title>
    <desc>Created with Sketch.</desc>
    <defs>
        <polygon id="path-1" points="0.00381818182 3.49999224 0.00381818182 0.0378026516 7.03407794 0.0378026516 7.03407794 3.49999224 0.00381818182 3.49999224"></polygon>
    </defs>
    <g id="Page-1" stroke="none" stroke-width="1" fill="none" fill-rule="evenodd">
        <g id="marchand-logo">
            <g id="Group-2" transform="translate(1.000000, 1.000000)">
                <g id="Group" font-weight="bold" font-family="Helvetica-Bold, Helvetica" fill="#FFFFFF">
                    <text id="Marchand-Archive" font-size="12" letter-spacing="0.6545454">
                        <tspan x="0.4667618" y="11">Marchand Archive</tspan>
                    </text>
                    <text id="HISTORY-PROJECT" font-size="4" line-spacing="5" letter-spacing="0.523636341">
                        <tspan x="67.8246806" y="18.5">HISTORY PROJECT</tspan>
                    </text>
                </g>
                <g id="uc_davis_wordmark_rgb" transform="translate(45.000000, 15.299999)">
                    <path d="M18.2481727,3.19142727 L18.5814364,2.30974545 L18.6396,2.35976364 C18.8441909,2.52680909 19.1217091,2.66871818 19.3838273,2.67431818 C19.6181364,2.67979091 19.7326818,2.61742727 19.7015,2.4192 C19.6782727,2.27111818 19.5111,2.24502727 19.4068,2.22440909 L19.1775182,2.17865455 C18.7315545,2.09541818 18.3566727,1.82025455 18.3566727,1.29932727 C18.3566727,0.511636364 19.0358,0.0698090909 19.7188091,0.0698090909 C20.0779727,0.0698090909 20.4068455,0.161190909 20.7151,0.361581818 L20.4257455,1.14284545 C20.2670364,1.02855455 20.0266818,0.867681818 19.7223727,0.856545455 C19.6223364,0.852727273 19.3935,0.905227273 19.4668727,1.13775455 C19.4984364,1.23664545 19.6403455,1.2782 19.7274636,1.29932727 L19.9860182,1.36175455 C20.4695273,1.47426364 20.8192727,1.74942727 20.8192727,2.31178182 C20.8192727,3.10360909 20.1358818,3.49567273 19.4568182,3.49567273 C19.0609364,3.49567273 18.6021818,3.38303636 18.2481727,3.19142727" id="Fill-10" fill="#FFFFFF"></path>
                    <polygon id="Fill-11" fill="#FFFFFF" points="16.8589909 3.44603636 18.0022182 3.44603636 18.0022182 0.1239 16.8589909 0.1239"></polygon>
                    <polyline id="Fill-12" fill="#FFFFFF" points="15.5477636 0.1239 16.7394182 0.1239 15.5225 3.44603636 14.5558 3.44603636 13.3430818 0.1239 14.5304091 0.1239 15.0393091 2.12850909 15.5477636 0.1239"></polyline>
                    <path d="M10.5213182,3.44603636 L11.7299636,3.44603636 L11.8215364,3.02877273 L12.6842545,3.02877273 L12.7988636,3.44603636 L14.0077,3.44603636 L12.8758636,0.1239 L11.6083545,0.1239 L10.5213182,3.44603636 Z M12.2549636,1.08277273 L12.2549636,1.08277273 C12.2760909,1.22423636 12.4841182,2.24089091 12.4841182,2.24089091 L12.0272727,2.24089091 L12.2549636,1.08277273 L12.2549636,1.08277273 Z" id="Fill-13" fill="#FFFFFF"></path>
                    <path d="M8.70418182,2.49212727 L8.78239091,2.49212727 C9.1658,2.49212727 9.45019091,2.26208182 9.45019091,1.82865455 C9.45019091,1.36175455 9.19806364,1.10135455 8.77698182,1.10135455 L8.70418182,1.10135455 L8.70418182,2.49212727 Z M7.55376364,0.1239 L8.72486364,0.1239 C9.78784545,0.1239 10.6002273,0.611927273 10.6002273,1.83291818 C10.6002273,2.81660909 9.9379,3.44603636 9.00836364,3.44603636 L7.55376364,3.44419091 L7.55376364,0.1239 L7.55376364,0.1239 Z" id="Fill-14" fill="#FFFFFF"></path>
                    <g id="Group-18">
                        <mask id="mask-2" fill="white">
                            <use xlink:href="#path-1"></use>
                        </mask>
                        <g id="Clip-16"></g>
                        <path d="M6.8579,0.228136364 L6.91981818,0.773054545 C6.93451818,0.902681818 7.00820909,1.2131 6.91727273,1.17148182 C6.85993636,1.14583636 6.8131,1.00488182 6.7662,0.880154545 C6.7424,0.816709091 6.62912727,0.516663636 6.59947273,0.494581818 C6.45641818,0.387354545 6.09941818,0.266763636 5.85791818,0.265745455 C5.12527273,0.262945455 4.64068182,0.803218182 4.64068182,1.76202727 C4.64068182,2.44942727 4.96993636,3.27453636 5.80764545,3.27453636 C6.10775455,3.27453636 6.68264545,3.18003636 6.83919091,2.7531 C6.9097,2.55977273 6.97454545,2.38820909 7.02144545,2.44007273 C7.056,2.47831818 7.01094545,2.63308182 6.99007273,2.71619091 C6.89130909,3.11226364 6.88596364,3.23215455 6.85465455,3.24742727 C6.47620909,3.43731818 5.99091818,3.49993636 5.56601818,3.49993636 C4.21552727,3.49993636 3.74881818,2.71211818 3.74881818,1.92449091 C3.74881818,0.557454545 4.58862727,-0.00833636364 5.89088182,0.0407272727 C6.21994545,0.0530727273 6.54932727,0.111618182 6.8579,0.228136364" id="Fill-15" fill="#FFFFFF" mask="url(#mask-2)"></path>
                        <path d="M2.8693,0.288654545 L2.65325455,0.213181818 C2.58039091,0.147763636 2.66890909,0.129627273 2.66890909,0.129627273 C2.66890909,0.129627273 2.98149091,0.187472727 3.76046364,0.1218 C3.76046364,0.1218 3.82810909,0.135036364 3.78114545,0.189954545 L3.52583636,0.299345455 C3.35936364,0.371954545 3.35936364,0.330272727 3.35936364,0.512654545 L3.3579,2.2057 C3.3579,3.52984545 2.01084545,3.49993636 1.74828182,3.49993636 C1.62342727,3.49993636 0.397790909,3.49993636 0.397790909,2.43695455 L0.397790909,0.645018182 C0.397790909,0.332372727 0.431136364,0.3409 0.327281818,0.304118182 L0.0147,0.186772727 C0.0147,0.186772727 -0.0379909091,0.112 0.0561272727,0.116772727 C0.3115,0.129627273 0.681481818,0.184481818 1.54108182,0.1218 C1.54108182,0.1218 1.61649091,0.140063636 1.56698182,0.194727273 L1.31708182,0.267845455 C1.11904545,0.356427273 1.14526364,0.288654545 1.13991818,0.491781818 L1.14602727,2.25883636 C1.14602727,2.69226364 1.36907273,3.22852727 2.0608,3.22852727 C3.01547273,3.22852727 3.02438182,2.40297273 3.02438182,2.21957273 L3.02603636,0.468872727 C3.03621818,0.304118182 3.01547273,0.351081818 2.8693,0.288654545" id="Fill-17" fill="#FFFFFF" mask="url(#mask-2)"></path>
                    </g>
                </g>
            </g>
        </g>
    </g>
</svg>